<?xml version="1.0" encoding="UTF-8"?>
<svg id="Warstwa_2" data-name="Warstwa 2" xmlns="http://www.w3.org/2000/svg" viewBox="0 0 450 824.61">
  <defs>
    <style>
      .cls-1 {
        fill: #f0f0f0;
      }

      .cls-2 {
        fill: none;
        stroke: #ebe1dd;
        stroke-linecap: round;
        stroke-miterlimit: 10;
        stroke-width: 7px;
      }
    </style>
  </defs>
  <g id="Warstwa_3" data-name="Warstwa 3">
    <path class="cls-2" d="M210.52,79.92c-1.07-2.14-2.26-5.36-1-8,3.72-7.78,27.34-7.56,31,1,.61,1.42,1.28,4.51-2,10"/>
    <path class="cls-1" d="M399,74.61H51c-5,0-51,49.05-51,54.06v686.89c0,5,4.05,9.06,9.06,9.06h431.89c5,0,9.06-4.05,9.06-9.06V128.66c0-5-46-54.06-51-54.06ZM254.24,155.59c-1.19,1.32-11.41,7.4-13.44,8.32-6.78,3.07-4.16-9.16-6.04-10.12-21.52,2.98-44.58-16.56-38.94-39.25,5.07-20.38,29.86-28.57,46.14-15.64,13.56,10.78,15.54,33.64,5.37,47.33-.03,2,10.73,5.15,6.92,9.37Z"/>
    <path class="cls-2" d="M219.14,95.61s1.85-7.39,3.46-19.9c.77-5.96,3.58-12.91.74-21.33-4.23-12.55-25.76-1.51-41.03,43.64-5.48,16.21-58.89-54.2-31.48-59.71,14.7-2.96,18.5,75.3,26.44,48.22C187.04,53.19,247.54-6.94,263.54,5.06c10.82,8.11-15.22,38.93-28.96,62.97-7.63,13.34-5.45,27.57-5.45,27.57"/>
    <rect class="cls-1" x="83.93" y="74.61" width="113.78" height="30.36"/>
  </g>
</svg>