<?xml version="1.0" encoding="UTF-8"?>
<svg id="Warstwa_2" data-name="Warstwa 2" xmlns="http://www.w3.org/2000/svg" viewBox="0 0 450 824.31">
  <defs>
    <style>
      .cls-1 {
        fill: #f0f0f0;
      }

      .cls-2 {
        fill: none;
        stroke: #ebe1dd;
        stroke-linecap: round;
        stroke-miterlimit: 10;
        stroke-width: 7px;
      }
    </style>
  </defs>
  <g id="Warstwa_1-2" data-name="Warstwa 1">
    <path class="cls-2" d="M211,82.31c-1.07-2.14-2.26-5.36-1-8,3.72-7.78,27.34-7.56,31,1,.61,1.42,1.28,4.51-2,10"/>
    <path class="cls-1" d="M399,74.31H51c-5,0-51,49.05-51,54.06v686.89c0,5,4.05,9.06,9.06,9.06h431.89c5,0,9.06-4.05,9.06-9.06V128.36c0-5-46-54.06-51-54.06ZM239.01,151.31c1.31,17.84-25.85,18.73-26.01.99-17.51,5.85-29.23-13.01-14-24.5-7.78-3.78-9.52-14.23-3.54-20.54,6.48-6.85,15.12-2.2,16.6-3.36,1.14-.89.94-3.83,1.72-5.32,6.6-12.59,26.26-7.81,25.23,6.72,16.73-8.42,29.33,12.3,13.99,23.5,15.6,10.11,2.17,31.21-13.99,22.5Z"/>
    <path class="cls-2" d="M220,95.31s5.81-44.89-3-71c-4.23-12.55-70.46,10.3-84,56-8,27-54.78,32.7-34,14,12.49-11.24-15.49-25.67,7-40C155.55,22.74,213-5.69,229,6.31c16.82,12.61,1,89,1,89"/>
    <rect class="cls-1" x="64" y="74.31" width="92" height="52"/>
  </g>
</svg>