<?xml version="1.0" encoding="UTF-8"?>
<svg id="Warstwa_2" data-name="Warstwa 2" xmlns="http://www.w3.org/2000/svg" viewBox="0 0 450 824.3">
  <defs>
    <style>
      .cls-1 {
        fill: #f0f0f0;
      }

      .cls-2 {
        fill: none;
        stroke: #ebe1dd;
        stroke-linecap: round;
        stroke-miterlimit: 10;
        stroke-width: 7px;
      }
    </style>
  </defs>
  <g id="Warstwa_1_kopia" data-name="Warstwa 1 kopia">
    <path class="cls-2" d="M239,82.3c1.07-2.14,2.26-5.36,1-8-3.72-7.78-27.34-7.56-31,1-.61,1.42-1.28,4.51,2,10"/>
    <path class="cls-1" d="M399,74.3H51c-5,0-51,49.05-51,54.06v686.89c0,5,4.05,9.06,9.06,9.06h431.89c5,0,9.06-4.05,9.06-9.06V128.36c0-5-46-54.06-51-54.06ZM258.87,126.51c-.5,3.45-3.17,4.88-3.69,6.67-.69,2.4,1,8.39-1.43,9.57-1.15.56-10.01.6-11.01,0-1.8-1.06-1.22-5.6-1.28-7.45h-33.02c-.06,1.85.51,6.39-1.28,7.45-.88.52-8.01.53-9.42.35-5.16-.68-1.87-7.15-2.99-10.62-.27-.84-3.04-2.12-3.63-5.42-.67-3.78.24-12.97,2.17-16.31,1.08-1.87,3.41-2.5,4.47-3.94,3.88-5.24,2.77-13.75,12.29-14.89,6.44-.78,21.89-.6,28.52,0,10.79.96,9.01,8.9,13.6,14.88,1.12,1.45,2.6,1.87,3.53,2.94,2.54,2.92,3.72,12.94,3.17,16.78Z"/>
    <path class="cls-2" d="M230,95.3S215.43,7.75,242.66,3.56c13-2,38.3,42.54,51.84,88.24,8,27,77.28,21.2,56.5,2.5-12.49-11.24-35.01-17.17-57.5-31.5-49.55-31.57-74-37-87-29-10.21,6.28,6.95,27.17,9,34,0,0,1,3,4.5,27.5h0"/>
    <rect class="cls-1" x="279" y="74.3" width="92" height="52"/>
  </g>
</svg>