<?xml version="1.0" encoding="UTF-8"?>
<svg id="Warstwa_2" data-name="Warstwa 2" xmlns="http://www.w3.org/2000/svg" viewBox="0 0 450 824.41">
  <defs>
    <style>
      .cls-1 {
        fill: #f0f0f0;
      }

      .cls-2 {
        fill: none;
        stroke: #ebe1dd;
        stroke-linecap: round;
        stroke-miterlimit: 10;
        stroke-width: 7px;
      }
    </style>
  </defs>
  <g id="Warstwa_3" data-name="Warstwa 3">
    <path class="cls-2" d="M210.52,79.73c-1.07-2.14-2.26-5.36-1-8,3.72-7.78,27.34-7.56,31,1,.61,1.42,1.28,4.51-2,10"/>
    <path class="cls-1" d="M399,74.41H51c-5,0-51,49.05-51,54.06v686.89c0,5,4.05,9.06,9.06,9.06h431.89c5,0,9.06-4.05,9.06-9.06V128.47c0-5-46-54.06-51-54.06ZM261.71,104.57c-1.18,9.6-4.79,20.19-6.89,30.12l-2.53,2.59c.23.39,2.55,1.75,3.24,2.78,2.64,3.89,1.32,9.56-2.71,11.93-8.42,4.93-16.94-5.61-10.63-13h-30.55c6.84,7.85-3.31,18.86-11.58,12.22-3.41-2.74-3.89-6.99-1.77-10.73.89-1.58,2.08-1.96,2.94-3.33l-11.36-37.12c-.12-.58-.49-.63-.99-.73-2.98-.56-9.95,1.03-12.06-.85-1.95-1.74-1.75-7.64,1.5-8.4,2.66-.62,12.74-.52,15.74-.23,5.62.54,4.05,5.45,5.61,9.51l57.64-.04c3.43.19,4.81,1.9,4.39,5.28Z"/>
    <path class="cls-2" d="M218.67,100.41s2.31-12.39,3.92-24.9c.77-5.96,3.58-12.91.74-21.33-4.23-12.55-47.62-7.9-62.89,37.25-5.48,16.21-74.8,14.5-47.4,8.98,14.7-2.96-7.21-21.34.73-48.42C123.56,18.66,175.56,2.02,196,3.6c13.48,1.04,52.33,40.2,38.58,64.24-7.63,13.34-5.25,32.57-5.25,32.57"/>
    <rect class="cls-1" x="58.4" y="74.41" width="117.16" height="38.68"/>
  </g>
</svg>